<svg width="195" height="29" viewBox="0 0 195 29" fill="none" xmlns="http://www.w3.org/2000/svg">
<path d="M11.8815 28.5264C9.72577 28.5264 7.64526 28.2632 5.63995 27.7368C3.6597 27.1853 2.04291 26.4835 0.789593 25.6312L3.23357 20.1417C4.41169 20.8937 5.76528 21.5203 7.29433 22.0217C8.84845 22.4979 10.39 22.736 11.9191 22.736C12.9468 22.736 13.774 22.6483 14.4007 22.4729C15.0273 22.2723 15.4785 22.0217 15.7543 21.7209C16.055 21.395 16.2054 21.019 16.2054 20.5929C16.2054 19.9913 15.9297 19.515 15.3783 19.1641C14.8268 18.8132 14.1124 18.5249 13.2351 18.2993C12.3577 18.0737 11.3802 17.8481 10.3023 17.6225C9.24951 17.3969 8.18419 17.1086 7.10633 16.7577C6.05354 16.4068 5.08849 15.9556 4.21116 15.4041C3.33384 14.8276 2.61944 14.0881 2.06798 13.1857C1.51652 12.2583 1.24079 11.0927 1.24079 9.68897C1.24079 8.10979 1.66692 6.681 2.51918 5.40261C3.3965 4.12423 4.69996 3.0965 6.42954 2.31944C8.15912 1.54238 10.3148 1.15385 12.8967 1.15385C14.6263 1.15385 16.3182 1.35438 17.9726 1.75545C19.6521 2.13144 21.1435 2.69544 22.447 3.44743L20.1534 8.97458C18.9001 8.29778 17.6593 7.79646 16.431 7.47059C15.2028 7.11966 14.0121 6.9442 12.8591 6.9442C11.8314 6.9442 11.0042 7.057 10.3775 7.2826C9.75084 7.48313 9.29965 7.75886 9.02391 8.10979C8.74818 8.46072 8.61032 8.86178 8.61032 9.31298C8.61032 9.8895 8.87352 10.3532 9.39991 10.7042C9.95137 11.03 10.6658 11.3058 11.5431 11.5314C12.4455 11.7319 13.4231 11.945 14.4759 12.1705C15.5537 12.3961 16.619 12.6844 17.6718 13.0353C18.7497 13.3612 19.7273 13.8124 20.6046 14.3889C21.4819 14.9404 22.1838 15.6798 22.7102 16.6073C23.2616 17.5097 23.5374 18.6502 23.5374 20.0289C23.5374 21.5579 23.0987 22.9742 22.2214 24.2776C21.3691 25.556 20.0782 26.5837 18.3486 27.3608C16.6441 28.1379 14.4884 28.5264 11.8815 28.5264ZM34.609 28.3384C32.0021 28.3384 29.9717 27.6992 28.5179 26.4208C27.064 25.1174 26.3371 23.1622 26.3371 20.5553V3.07143H33.481V20.4801C33.481 21.207 33.6815 21.7835 34.0826 22.2097C34.4837 22.6107 34.9975 22.8112 35.6242 22.8112C36.4765 22.8112 37.2034 22.5982 37.805 22.1721L39.5722 27.1728C38.9706 27.5739 38.2311 27.8621 37.3538 28.0376C36.4765 28.2381 35.5615 28.3384 34.609 28.3384ZM23.3667 13.7121V8.37299H38.1434V13.7121H23.3667ZM53.6444 28V24.2024L53.1556 23.2624V16.2689C53.1556 15.1409 52.8047 14.2761 52.1028 13.6745C51.426 13.0479 50.3356 12.7345 48.8317 12.7345C47.8541 12.7345 46.8639 12.8975 45.8613 13.2233C44.8586 13.5241 44.0064 13.9503 43.3045 14.5017L40.8981 9.65137C42.0512 8.89938 43.4298 8.32285 45.0341 7.92179C46.6634 7.49566 48.2802 7.2826 49.8844 7.2826C53.1932 7.2826 55.75 8.04712 57.5548 9.57617C59.3846 11.0802 60.2995 13.4489 60.2995 16.6825V28H53.6444ZM47.6285 28.3384C45.9991 28.3384 44.6205 28.0627 43.4925 27.5112C42.3645 26.9597 41.4997 26.2078 40.8981 25.2552C40.3216 24.3027 40.0333 23.2374 40.0333 22.0593C40.0333 20.8059 40.3467 19.7281 40.9733 18.8257C41.6251 17.8982 42.6152 17.1964 43.9437 16.7201C45.2722 16.2188 46.9893 15.9681 49.0949 15.9681H53.9076V19.6905H50.0724C48.9194 19.6905 48.1047 19.8785 47.6285 20.2545C47.1773 20.6305 46.9517 21.1318 46.9517 21.7585C46.9517 22.3851 47.1898 22.8864 47.6661 23.2624C48.1423 23.6384 48.7941 23.8264 49.6212 23.8264C50.3983 23.8264 51.1002 23.6384 51.7268 23.2624C52.3786 22.8614 52.8548 22.2598 53.1556 21.4577L54.1332 24.0896C53.7572 25.4934 53.0177 26.5587 51.9148 27.2856C50.837 27.9875 49.4082 28.3384 47.6285 28.3384ZM63.6809 28V7.62099H70.4864V13.5617L69.4712 11.8698C70.0728 10.3407 71.0504 9.20018 72.404 8.44818C73.7576 7.67113 75.3994 7.2826 77.3295 7.2826V13.7121C77.0037 13.662 76.7154 13.6369 76.4648 13.6369C76.2392 13.6119 75.9885 13.5993 75.7128 13.5993C74.2589 13.5993 73.0808 14.0004 72.1784 14.8025C71.276 15.5796 70.8248 16.858 70.8248 18.6377V28H63.6809ZM79.4513 28V1.68025H92.912C96.3711 1.68025 98.953 2.31944 100.657 3.59783C102.362 4.85115 103.214 6.50554 103.214 8.56098C103.214 9.91457 102.851 11.1052 102.124 12.1329C101.422 13.1356 100.419 13.9377 99.1159 14.5393C97.8375 15.1159 96.3085 15.4041 94.5287 15.4041L95.2807 13.5993C97.1356 13.5993 98.7524 13.8876 100.131 14.4641C101.51 15.0156 102.575 15.8302 103.327 16.9081C104.104 17.9609 104.493 19.2518 104.493 20.7809C104.493 23.0619 103.565 24.8416 101.71 26.12C99.8804 27.3733 97.1983 28 93.6639 28H79.4513ZM86.8208 22.6233H93.0624C94.3407 22.6233 95.3058 22.4102 95.9575 21.9841C96.6343 21.5329 96.9727 20.8561 96.9727 19.9537C96.9727 19.0513 96.6343 18.387 95.9575 17.9609C95.3058 17.5097 94.3407 17.2841 93.0624 17.2841H86.2944V12.1329H91.9344C93.1877 12.1329 94.1277 11.9199 94.7543 11.4938C95.381 11.0676 95.6943 10.4284 95.6943 9.57617C95.6943 8.72391 95.381 8.09725 94.7543 7.69619C94.1277 7.27006 93.1877 7.057 91.9344 7.057H86.8208V22.6233ZM115.455 28.3384C113.801 28.3384 112.309 28.0125 110.981 27.3608C109.677 26.7091 108.649 25.6939 107.897 24.3152C107.171 22.9115 106.807 21.1443 106.807 19.0137V7.62099H113.951V17.8481C113.951 19.4273 114.239 20.5553 114.816 21.2321C115.417 21.9089 116.257 22.2473 117.335 22.2473C118.037 22.2473 118.676 22.0843 119.253 21.7585C119.829 21.4326 120.293 20.9187 120.644 20.2169C120.995 19.4899 121.17 18.5625 121.17 17.4345V7.62099H128.314V28H121.509V22.2473L122.825 23.864C122.123 25.368 121.107 26.496 119.779 27.248C118.45 27.9749 117.009 28.3384 115.455 28.3384ZM142.203 28.3384C139.947 28.3384 137.929 27.8872 136.149 26.9848C134.395 26.0824 133.016 24.8416 132.013 23.2624C131.011 21.6582 130.509 19.8283 130.509 17.7729C130.509 15.7174 131.011 13.9001 132.013 12.3209C133.016 10.7418 134.395 9.51351 136.149 8.63618C137.929 7.73379 139.947 7.2826 142.203 7.2826C144.509 7.2826 146.502 7.77139 148.181 8.74898C149.861 9.72657 151.051 11.1052 151.753 12.8849L146.226 15.7049C145.75 14.7524 145.161 14.0631 144.459 13.6369C143.757 13.1857 142.992 12.9601 142.165 12.9601C141.338 12.9601 140.586 13.1481 139.909 13.5241C139.232 13.9001 138.693 14.4516 138.292 15.1785C137.916 15.8804 137.728 16.7452 137.728 17.7729C137.728 18.8257 137.916 19.7155 138.292 20.4425C138.693 21.1694 139.232 21.7209 139.909 22.0969C140.586 22.4729 141.338 22.6609 142.165 22.6609C142.992 22.6609 143.757 22.4478 144.459 22.0217C145.161 21.5705 145.75 20.8686 146.226 19.9161L151.753 22.736C151.051 24.5158 149.861 25.8944 148.181 26.872C146.502 27.8496 144.509 28.3384 142.203 28.3384ZM159.182 24.24L159.37 15.7049L167.68 7.62099H176.14L166.928 17.1337L163.281 20.0665L159.182 24.24ZM153.241 28V0.101063H160.385V28H153.241ZM168.206 28L161.965 20.1793L166.401 14.6897L176.854 28H168.206ZM184.599 28.3384C182.87 28.3384 181.178 28.1379 179.523 27.7368C177.894 27.3357 176.578 26.8344 175.575 26.2328L177.719 21.3449C178.671 21.9214 179.787 22.3851 181.065 22.736C182.343 23.0619 183.597 23.2248 184.825 23.2248C186.028 23.2248 186.855 23.0995 187.306 22.8488C187.783 22.5982 188.021 22.2598 188.021 21.8337C188.021 21.4326 187.795 21.1443 187.344 20.9689C186.918 20.7683 186.341 20.6179 185.614 20.5177C184.913 20.4174 184.136 20.3046 183.283 20.1793C182.431 20.0539 181.566 19.891 180.689 19.6905C179.837 19.4649 179.047 19.139 178.32 18.7129C177.618 18.2617 177.054 17.6601 176.628 16.9081C176.202 16.1561 175.989 15.2036 175.989 14.0505C175.989 12.7471 176.365 11.594 177.117 10.5914C177.894 9.56364 179.022 8.76152 180.501 8.18499C181.98 7.58339 183.785 7.2826 185.915 7.2826C187.344 7.2826 188.785 7.43299 190.239 7.73379C191.718 8.00952 192.959 8.43565 193.962 9.01218L191.818 13.8625C190.816 13.286 189.813 12.8975 188.81 12.6969C187.808 12.4713 186.855 12.3585 185.953 12.3585C184.75 12.3585 183.897 12.4964 183.396 12.7721C182.92 13.0479 182.682 13.3863 182.682 13.7873C182.682 14.1884 182.895 14.5017 183.321 14.7273C183.747 14.9279 184.311 15.0908 185.013 15.2161C185.74 15.3164 186.529 15.4292 187.382 15.5545C188.234 15.6548 189.086 15.8177 189.938 16.0433C190.816 16.2689 191.605 16.6073 192.307 17.0585C193.034 17.4846 193.611 18.0737 194.037 18.8257C194.463 19.5526 194.676 20.4926 194.676 21.6457C194.676 22.899 194.287 24.027 193.51 25.0296C192.758 26.0323 191.63 26.8344 190.126 27.436C188.647 28.0376 186.805 28.3384 184.599 28.3384Z" fill="url(#paint0_linear_8_29)"/>
<defs>
<linearGradient id="paint0_linear_8_29" x1="195" y1="6.51453" x2="54.1692" y2="83.3205" gradientUnits="userSpaceOnUse">
<stop stop-color="#237249"/>
<stop offset="1" stop-color="#35C66B"/>
</linearGradient>
</defs>
</svg>
